<svg width="492" height="110" xmlns="http://www.w3.org/2000/svg" xmlns:xlink="http://www.w3.org/1999/xlink">
 <g>
  <title>background</title>
  <rect fill="none" id="canvas_background" height="112" width="494" y="-1" x="-1"/>
 </g>

 <g>
  <title>Layer 1</title>
  <path id="svg_1" fill="red" d="m154.3,17.5a19.6,19.6 0 0 0 -13.8,-13.8c-12.1,-3.3 -60.8,-3.3 -60.8,-3.3s-48.7,0.1 -60.8,3.4a19.6,19.6 0 0 0 -13.8,13.8c-3.66,21.5 -5.08,54.26 0.1,74.9a19.6,19.6 0 0 0 13.8,13.8c12.1,3.3 60.8,3.3 60.8,3.3s48.7,0 60.8,-3.3a19.6,19.6 0 0 0 13.8,-13.8c3.86,-21.53 5.05,-54.27 -0.1,-75z"/>
  <path id="svg_2" d="m64.2,78.4l40.4,-23.4l-40.4,-23.4l0,46.8z" fill="#fff"/>
  <g id="svg_3" fill="#fff">
   <path id="svg_4" d="m227.9,99.7c-3.1,-2.1 -5.3,-5.3 -6.6,-9.7s-1.9,-10.2 -1.9,-17.5l0,-9.9c0,-7.3 0.7,-13.3 2.2,-17.7c1.5,-4.5 3.8,-7.7 7,-9.7s7.3,-3.1 12.4,-3.1c5,0 9.1,1 12.1,3.1s5.3,5.3 6.7,9.7s2.1,10.3 2.1,17.6l0,9.9c0,7.3 -0.7,13.1 -2.1,17.5s-3.6,7.6 -6.7,9.7c-3.1,2 -7.3,3.1 -12.5,3.1c-5.4,0.1 -9.6,-1 -12.7,-3zm17.3,-10.7c0.9,-2.2 1.3,-5.9 1.3,-10.9l0,-21.3c0,-4.9 -0.4,-8.5 -1.3,-10.7c-0.9,-2.3 -2.4,-3.4 -4.5,-3.4s-3.5,1.1 -4.4,3.4s-1.3,5.8 -1.3,10.7l0,21.3c0,5 0.4,8.7 1.2,10.9s2.3,3.3 4.5,3.3c2.1,0 3.6,-1.1 4.5,-3.3zm219.2,-16.3l0,3.5l0.4,9.9c0.3,2.2 0.8,3.8 1.6,4.8s2.1,1.5 3.8,1.5c2.3,0 3.9,-0.9 4.7,-2.7c0.9,-1.8 1.3,-4.8 1.4,-8.9l13.3,0.8c0.1,0.6 0.1,1.4 0.1,2.4c0,6.3 -1.7,11 -5.2,14.1s-8.3,4.7 -14.6,4.7c-7.6,0 -12.9,-2.4 -15.9,-7.1s-4.6,-12.1 -4.6,-22l0,-12.1c0.34,-17 3.33,-29.45 20.9,-29.5c5.3,0 9.3,1 12.1,2.9s4.8,4.9 6,9s1.7,9.7 1.7,16.9l0,11.7l-25.7,0l0,0.1zm2,-28.8c-0.8,1 -1.3,2.5 -1.6,4.7s-0.4,10 -0.4,10l0,4.9l11.2,0l0,-4.9c0,4.9 -0.1,-7.7 -0.4,-10s-0.8,-3.9 -1.6,-4.8s-2,-1.4 -3.6,-1.4c-1.7,0.1 -2.9,0.6 -3.6,1.5zm-275.9,27.5l-17.5,-63.2l15.3,0s7.15,31.7 9.6,46.6l0.4,0c2.78,-15.82 9.8,-46.6 9.8,-46.6l15.3,0l-17.7,63.1l0,30.3l-15.1,0l0,-30.2l-0.1,0z"/>
   <path fill="#fff" d="m311.5,33.4l0,68.3l-12,0l-1.3,-8.4l-0.3,0c-3.3,6.3 -8.2,9.5 -14.7,9.5c-11.77,-0.03 -13.08,-10 -13.2,-18.4l0,-51l15.4,0l0,50.1c0,3 0.3,5.2 1,6.5c1.42,2.78 5.1,2.07 7.1,0.7a8,8 0 0 0 2.7,-3.1l0,-54.2l15.3,0z" id="A"/>
   <path id="svg_5" d="m353.3,20.6l-15.3,0l0,81.1l-15,0l0,-81.1l-15.3,0l0,-12.4l45.5,0l0,12.4l0.1,0zm87.9,23.7c-0.9,-4.3 -2.4,-7.4 -4.5,-9.4c-2.1,-1.9 -4.9,-2.9 -8.6,-2.9a14.1,14.1 0 0 0 -7.9,2.4c-2.5,1.6 -4.3,3.7 -5.7,6.3l-0.1,0l0,-36l-14.8,0l0,96.9l12.7,0l1.6,-6.5l0.3,0a14,14 0 0 0 5.3,5.5c2.4,1.3 5,2 7.9,2c5.2,0 9,-2.4 11.5,-7.2c2.4,-4.8 3.7,-12.3 3.7,-22.4l0,-10.8c0,-7.6 -0.5,-13.6 -1.4,-17.9zm-14.1,27.9c0,5 -0.2,8.9 -0.6,11.7s-1.1,4.8 -2.1,6s-2.3,1.8 -3.9,1.8c-3.1,-0.1 -4.86,-1.5 -6.1,-3.6l0,-38.8c0.5,-1.9 1.4,-3.4 2.7,-4.6c2.2,-2.47 5.96,-2.5 7.7,0c0.9,1.2 1.4,3.3 1.8,6.2c0.3,2.9 0.5,7 0.5,12.4l0,8.9z"/>
  </g>
  <use fill="#ffffff" id="svg_6" x="78.9" xlink:href="#A"/>
 </g>
</svg>